Coordinates
version=1
nRows=13
nColumns=40
inDegrees=yes

Units are S.I. units (second, meters, Newtons, ...)
Angles are in degrees.

endheader
time	pelvis_tilt	pelvis_list	pelvis_rotation	pelvis_tx	pelvis_ty	pelvis_tz	hip_flexion_r	hip_adduction_r	hip_rotation_r	knee_angle_r	knee_angle_r_beta	ankle_angle_r	subtalar_angle_r	mtp_angle_r	hip_flexion_l	hip_adduction_l	hip_rotation_l	knee_angle_l	knee_angle_l_beta	ankle_angle_l	subtalar_angle_l	mtp_angle_l	lumbar_extension	lumbar_bending	lumbar_rotation	arm_flex_r	arm_add_r	arm_rot_r	elbow_flex_r	pro_sup_r	wrist_flex_r	wrist_dev_r	arm_flex_l	arm_add_l	arm_rot_l	elbow_flex_l	pro_sup_l	wrist_flex_l	wrist_dev_l
      5.27000000	     -0.17747464	     -5.68297329	      2.90984233	      1.10159216	      0.93401965	      0.50667788	      7.04346638	      3.88331779	    -13.54879029	     16.26304614	     16.26304614	     11.42780381	      0.94406575	     -4.00023815	     28.78404885	    -14.99716427	      0.24698622	     63.74980706	     63.74980706	      7.81847748	    -18.86944048	     14.85201842	     -9.96666900	      5.66947873	      1.69440032	     17.04978068	    -20.61652462	     -1.48030632	     77.26955692	     44.73816211	      0.00000000	      0.00000000	      4.32616852	    -11.12708391	     -0.08372658	     28.66741000	     44.53291474	      0.00000000	      0.00000000
      5.28371429	     -0.34538151	     -5.63354872	      3.24017574	      1.10051413	      0.93428192	      0.50711580	      6.52882720	      3.96557444	    -13.77896772	     15.57359285	     15.57359285	     11.45517091	      1.09854560	     -3.95395091	     29.73849600	    -14.85411049	     -0.02199423	     61.15583671	     61.15583671	      8.36825911	    -19.01537818	     14.99515726	     -9.95006025	      5.63946370	      1.65801506	     18.54740079	    -20.51716556	     -1.65195478	     79.13792907	     44.69808359	      0.00000000	      0.00000000	      3.13416739	    -10.86076591	      0.01626232	     28.41246866	     44.52220200	      0.00000000	      0.00000000
      5.29742857	     -0.60549478	     -5.54311754	      3.51364313	      1.09931640	      0.93433869	      0.50750620	      6.20406928	      3.97995558	    -13.94856614	     15.04064125	     15.04064125	     11.50642156	      1.16643519	     -3.93742698	     30.58811097	    -14.60685983	     -0.36097642	     58.26803287	     58.26803287	      8.89235444	    -19.09167345	     15.23398314	     -9.85822337	      5.54170021	      1.88819898	     20.02499841	    -20.68623920	     -1.83565779	     80.61279729	     44.66703414	      0.00000000	      0.00000000	      2.09484248	    -10.54755384	      0.12493012	     28.21614709	     44.49914959	      0.00000000	      0.00000000
      5.31114286	     -0.69431791	     -5.51846125	      3.87597141	      1.09828564	      0.93448589	      0.50770230	      5.61305690	      4.07021339	    -14.27782307	     14.35819194	     14.35819194	     11.49024609	      1.42965472	     -4.23842054	     31.09858726	    -14.29571672	     -0.51505240	     55.13578934	     55.13578934	      9.31372823	    -19.10132085	     15.58014925	     -9.99615840	      5.60196764	      2.02983817	     21.02528475	    -21.00896871	     -1.68673861	     84.04161833	     44.58495940	      0.00000000	      0.00000000	      0.66701550	    -10.36804036	      0.64060796	     28.95640136	     44.45297135	      0.00000000	      0.00000000
      5.32485714	     -0.88461823	     -5.45015821	      4.18769982	      1.09711189	      0.93443059	      0.50775561	      5.24396813	      4.08697436	    -14.51135165	     13.86939630	     13.86939630	     11.55388983	      1.47669190	     -4.31863366	     31.53175850	    -13.86071442	     -0.66063214	     51.77888750	     51.77888750	      9.57432131	    -19.06431353	     15.78796181	     -9.99601344	      5.59366169	      2.06157906	     22.54256136	    -20.94007670	     -1.89063559	     85.91616965	     44.55264525	      0.00000000	      0.00000000	     -0.43967096	    -10.17443528	      1.04220760	     28.87530824	     44.40367642	      0.00000000	      0.00000000
      5.33857143	     -1.12037119	     -5.30940008	      4.47415870	      1.09579687	      0.93421267	      0.50765039	      5.05376587	      3.98187087	    -14.63719954	     13.61325027	     13.61325027	     11.65288188	      1.43135450	     -4.36524747	     31.83136905	    -13.22217054	     -0.64268676	     48.23943828	     48.23943828	      9.79209276	    -18.95759652	     16.00611991	     -9.93282330	      5.45018927	      2.27101071	     23.99182172	    -21.05291671	     -2.08304460	     87.22715722	     44.52861749	      0.00000000	      0.00000000	     -1.34629525	     -9.87802140	      1.24105236	     28.72280298	     44.36958499	      0.00000000	      0.00000000
      5.35228571	     -1.26647388	     -5.23600052	      4.80962434	      1.09452162	      0.93394533	      0.50725252	      4.78085495	      3.91620920	    -14.95582030	     13.38520509	     13.38520509	     11.78617457	      1.57324977	     -4.53824584	     31.91799594	    -12.56656716	     -0.40686041	     44.60722175	     44.60722175	      9.67140069	    -18.75506155	     15.44190119	    -10.04291340	      5.48106220	      2.18425950	     25.32026455	    -20.95152453	     -2.04699140	     89.84028961	     44.46796645	      0.00000000	      0.00000000	     -2.49784774	     -9.69220542	      1.71523541	     28.97523965	     44.30956501	      0.00000000	      0.00000000
      5.36600000	     -1.46588850	     -5.08344636	      5.10612678	      1.09313073	      0.93357217	      0.50664671	      4.67368943	      3.73734560	    -15.09405025	     13.35443149	     13.35443149	     11.99636943	      1.42190076	     -4.64419505	     31.93204781	    -11.76807102	     -0.01947046	     40.96703469	     40.96703469	      9.59002742	    -18.37779703	     15.39316944	    -10.02862404	      5.37729167	      2.39449440	     26.64884769	    -21.00710265	     -2.19770056	     91.15873682	     44.44373717	      0.00000000	      0.00000000	     -3.28962743	     -9.42623770	      1.93615164	     28.91988032	     44.27608981	      0.00000000	      0.00000000
      5.37971429	     -1.61498380	     -4.94018568	      5.41983042	      1.09176337	      0.93316000	      0.50587173	      4.56382028	      3.54226907	    -15.30003700	     13.43618987	     13.43618987	     12.24118788	      1.29040075	     -4.76984527	     31.79890188	    -10.98459875	      0.47729390	     37.40021293	     37.40021293	      9.44008658	    -17.73255860	     14.93799377	    -10.10400744	      5.29118913	      2.36232303	     27.95138578	    -20.80725773	     -2.24299329	     92.97998311	     44.40198992	      0.00000000	      0.00000000	     -4.12094346	     -9.20317080	      2.18755794	     28.90520338	     44.24020158	      0.00000000	      0.00000000
      5.39342857	     -1.75951503	     -4.90890018	      5.73534761	      1.09044211	      0.93253784	      0.50494256	      4.48462716	      3.43293768	    -15.60778527	     13.58935453	     13.58935453	     12.56557941	      1.33108654	     -4.80166677	     31.51932205	    -10.40347309	      0.93132555	     33.76163775	     33.76163775	      7.99857668	    -16.98955803	     10.92063604	    -10.19659800	      5.33370821	      2.74803695	     28.71460900	    -21.12642718	     -2.47085669	     95.80655016	     44.38708891	      0.00000000	      0.00000000	     -5.00892728	     -9.18057408	      3.33675731	     29.84060828	     44.16036027	      0.00000000	      0.00000000
      5.40714286	     -1.98795430	     -5.04196403	      6.12368946	      1.08897513	      0.93176583	      0.50382790	      4.52273746	      3.50916851	    -15.85944127	     13.71593616	     13.71593616	     12.75399548	      1.06900276	     -4.89588420	     31.64152400	     -9.94193847	      1.70259397	     30.98049285	     30.98049285	      8.24938692	    -15.56094726	     11.07100011	    -10.05182847	      5.54659133	      2.90030132	     29.91390057	    -21.17329346	     -2.66404675	     96.49522498	     44.37936016	      0.00000000	      0.00000000	     -5.45695875	     -8.83380694	      3.45201252	     29.68610211	     44.14257267	      0.00000000	      0.00000000
      5.42085714	     -2.00120883	     -4.70496368	      6.40152425	      1.08781142	      0.93157202	      0.50255522	      4.29326214	      3.08091423	    -15.88545799	     13.93704014	     13.93704014	     13.09469081	      0.78841960	     -4.95154382	     31.18585133	     -9.20011135	      1.89375541	     28.24167055	     28.24167055	      8.34542294	    -13.93781748	     10.89223416	    -10.26999604	      5.22727358	      2.57582421	     31.15833757	    -20.42072505	     -2.57932625	     98.35781824	     44.33352059	      0.00000000	      0.00000000	     -6.08378684	     -8.70480386	      3.66454518	     29.40751688	     44.12263719	      0.00000000	      0.00000000
      5.43457143	     -2.10468076	     -4.60549334	      6.71860503	      1.08659997	      0.93113079	      0.50113939	      4.14206147	      2.90049835	    -16.02634234	     14.07586004	     14.07586004	     13.39727844	      0.56487552	     -4.96812849	     31.02407518	     -8.70420085	      2.14989934	     26.13984720	     26.13984720	      8.43691899	    -12.41211520	     10.68364561	    -10.31757604	      5.18222373	      2.51278726	     32.16643132	    -20.08740089	     -2.56868776	     99.76937291	     44.30255725	      0.00000000	      0.00000000	     -6.52657902	     -8.53456238	      3.80434541	     29.31254752	     44.11346382	      0.00000000	      0.00000000
